<svg xmlns="http://www.w3.org/2000/svg" aria-hidden="true" style="position:absolute;width:0;height:0;overflow:hidden"><defs>
<symbol id="icon-User-1" viewBox="0 0 80 32"><path fill="#fff" d="M13.216 29.893c-2.078 0-3.914-.429-5.507-1.288s-2.844-2.06-3.752-3.603c-.896-1.556-1.344-3.379-1.344-5.469V2.472l3.36-.019v16.8c0 1.269.212 2.377.635 3.323.436.933 1.008 1.711 1.717 2.333s1.487 1.089 2.333 1.4a7.738 7.738 0 0 0 2.557.448c.859 0 1.717-.156 2.576-.467s1.636-.772 2.333-1.381c.709-.622 1.276-1.406 1.699-2.352s.635-2.047.635-3.304v-16.8h3.36v17.08c0 2.078-.454 3.895-1.363 5.451-.896 1.556-2.14 2.763-3.733 3.621s-3.428 1.288-5.507 1.288zm22.699-.018c-2.402 0-4.374-.523-5.917-1.568-1.531-1.058-2.47-2.532-2.819-4.424l3.397-.541c.274 1.095.902 1.966 1.885 2.613.983.635 2.203.952 3.659.952 1.381 0 2.464-.286 3.248-.859s1.176-1.35 1.176-2.333c0-.572-.131-1.033-.392-1.381-.261-.361-.803-.697-1.624-1.008-.809-.311-2.035-.684-3.677-1.12-1.779-.473-3.179-.964-4.2-1.475s-1.749-1.101-2.184-1.773c-.435-.672-.653-1.487-.653-2.445 0-1.182.323-2.215.971-3.099.647-.896 1.549-1.587 2.707-2.072 1.17-.485 2.526-.728 4.069-.728 1.531 0 2.899.243 4.107.728s2.178 1.176 2.912 2.072a5.7 5.7 0 0 1 1.325 3.099l-3.397.616c-.162-1.083-.685-1.935-1.568-2.557-.871-.622-1.997-.952-3.379-.989-1.307-.05-2.371.18-3.192.691-.809.51-1.213 1.201-1.213 2.072 0 .485.149.902.448 1.251.311.348.877.678 1.699.989.834.311 2.041.666 3.621 1.064 1.779.448 3.179.94 4.2 1.475 1.033.523 1.767 1.145 2.203 1.867.435.709.653 1.587.653 2.632 0 1.941-.715 3.472-2.147 4.592-1.431 1.107-3.403 1.661-5.917 1.661zm20.17.018c-1.979 0-3.708-.435-5.189-1.307-1.468-.883-2.613-2.109-3.435-3.677-.821-1.58-1.232-3.422-1.232-5.525 0-2.203.405-4.107 1.213-5.712.809-1.618 1.935-2.862 3.379-3.733 1.456-.884 3.161-1.325 5.115-1.325 2.029 0 3.752.467 5.171 1.4 1.431.933 2.501 2.265 3.211 3.995.722 1.73 1.033 3.789.933 6.179h-3.36v-1.195c-.037-2.476-.541-4.324-1.512-5.544-.971-1.232-2.414-1.848-4.331-1.848-2.053 0-3.615.66-4.685 1.979s-1.605 3.211-1.605 5.675c0 2.377.535 4.219 1.605 5.525s2.595 1.96 4.573 1.96c1.332 0 2.489-.305 3.472-.915s1.755-1.487 2.315-2.632l3.192 1.101c-.784 1.78-1.966 3.161-3.547 4.144-1.568.971-3.329 1.456-5.283 1.456zm-7.448-9.706v-2.669h14.896v2.669H48.637zm20.023 9.146V9.173h2.968v4.872l-.485-.635a7.544 7.544 0 0 1 .915-1.717 5.74 5.74 0 0 1 1.288-1.288c.523-.423 1.114-.747 1.773-.971s1.332-.355 2.016-.392a6.465 6.465 0 0 1 1.923.131v3.117c-.697-.187-1.462-.236-2.296-.149s-1.605.392-2.315.915a4.98 4.98 0 0 0-1.512 1.68 7.309 7.309 0 0 0-.728 2.147 13.112 13.112 0 0 0-.205 2.333v10.117h-3.341z" style="fill:var(--color1, #fff)"/>
</symbol>
<symbol id="icon-user" viewBox="0 0 67 32">
<path fill="#f6b83d" d="M16 0h35.368c8.837 0 16 7.163 16 16s-7.163 16-16 16H16C7.163 32 0 24.837 0 16S7.163 0 16 0z" style="fill:var(--color2, #f6b83d)"/>
<path fill="#fff" d="M15.963 20.387c-.656 0-1.236-.136-1.739-.407s-.898-.65-1.185-1.138c-.283-.491-.424-1.067-.424-1.727v-5.388l1.061-.006v5.305c0 .401.067.751.2 1.049.138.295.318.54.542.737s.47.344.737.442c.271.094.54.141.808.141a2.377 2.377 0 0 0 1.55-.583c.224-.196.403-.444.536-.743s.2-.646.2-1.043v-5.305h1.061v5.394c0 .656-.143 1.23-.43 1.721-.283.491-.676.872-1.179 1.144s-1.083.407-1.739.407zm7.168-.006c-.758 0-1.381-.165-1.869-.495-.483-.334-.78-.8-.89-1.397l1.073-.171c.086.346.285.621.595.825.31.2.696.301 1.155.301.436 0 .778-.09 1.026-.271s.371-.426.371-.737a.705.705 0 0 0-.124-.436c-.083-.114-.253-.22-.513-.318a12.444 12.444 0 0 0-1.161-.354c-.562-.149-1.004-.305-1.326-.466s-.552-.348-.69-.56a1.386 1.386 0 0 1-.206-.772c0-.373.102-.7.307-.979a1.95 1.95 0 0 1 .855-.654c.369-.153.798-.23 1.285-.23.483 0 .916.077 1.297.23s.688.371.92.654c.236.279.375.605.419.979l-1.073.195a1.158 1.158 0 0 0-.495-.808c-.275-.196-.631-.301-1.067-.312-.413-.016-.749.057-1.008.218-.255.161-.383.379-.383.654 0 .153.047.285.141.395.098.11.277.214.536.312.263.098.644.21 1.144.336.562.141 1.004.297 1.326.466.326.165.558.362.696.589.138.224.206.501.206.831 0 .613-.226 1.096-.678 1.45-.452.35-1.075.525-1.869.525zm6.37.006c-.625 0-1.171-.138-1.639-.413a2.894 2.894 0 0 1-1.085-1.161c-.259-.499-.389-1.081-.389-1.745 0-.696.128-1.297.383-1.804a2.805 2.805 0 0 1 1.067-1.179c.46-.279.998-.419 1.615-.419.641 0 1.185.147 1.633.442.452.295.79.715 1.014 1.261.228.546.326 1.197.295 1.951h-1.061v-.377c-.012-.782-.171-1.366-.477-1.751-.307-.389-.762-.584-1.368-.584-.648 0-1.142.208-1.48.625s-.507 1.014-.507 1.792c0 .751.169 1.332.507 1.745s.819.619 1.444.619c.421 0 .786-.096 1.096-.289s.554-.47.731-.831l1.008.348a2.861 2.861 0 0 1-1.12 1.309 3.1 3.1 0 0 1-1.668.46zm-2.352-3.065v-.843h4.704v.843h-4.704zm6.322 2.889v-6.366h.937v1.539l-.153-.2c.075-.196.171-.377.289-.542.122-.165.257-.301.407-.407.165-.134.352-.236.56-.307s.421-.112.637-.124a2.04 2.04 0 0 1 .607.041v.984c-.22-.059-.462-.075-.725-.047s-.507.124-.731.289a1.568 1.568 0 0 0-.477.531c-.11.208-.187.434-.23.678-.043.24-.065.485-.065.737v3.195h-1.055z" style="fill:var(--color1, #fff)"/>
<path fill="#fff" stroke="#fff" stroke-linecap="round" stroke-linejoin="round" stroke-width="1.684" d="M48 17.895c-2.002 0-3.783.967-4.916 2.467-.244.323-.366.484-.362.702a.701.701 0 0 0 .242.485c.172.135.41.135.885.135h8.302c.476 0 .714 0 .885-.135a.707.707 0 0 0 .242-.485c.004-.218-.118-.38-.362-.702-1.134-1.5-2.914-2.467-4.916-2.467zM48 16a2.841 2.841 0 1 0 .001-5.683A2.841 2.841 0 0 0 48 16z" style="fill:var(--color1, #fff);stroke:var(--color1, #fff)"/>
</symbol>
</defs></svg>