
<svg xmlns="http://www.w3.org/2000/svg" aria-hidden="true" style="position:absolute;width:0;height:0;overflow:hidden">
  <defs>
    <symbol id="icon-x" viewBox="0 0 32 32">
      <path fill="none" stroke-linejoin="round" stroke-width="2.909" d="M25.324 6.662 6.662 25.324m0-18.662 18.662 18.662" />
    </symbol>
    <symbol id="icon-heart" viewBox="0 0 37 32">
      <path  d="M17.948 3.576c-3.683-4.345-9.819-5.519-14.434-1.538-4.609 3.98-5.26 10.639-1.639 15.343 2.319 3.020 8.264 8.612 12.233 12.239 1.325 1.207 1.982 1.813 2.773 2.055 0.679 0.208 1.454 0.208 2.133 0 0.792-0.241 1.454-0.848 2.773-2.055 3.975-3.627 9.914-9.218 12.233-12.239 3.627-4.705 3.054-11.402-1.639-15.343-4.688-3.935-10.751-2.807-14.434 1.538z"></path>
    </symbol>
    <symbol id="icon-eye-off" viewBox="0 0 32 32">
      <path stroke-linecap="round" stroke-linejoin="round" stroke-width="2.667" d="M23.92 23.92A13.43 13.43 0 0 1 16 26.667C6.667 26.667 1.333 16 1.333 16A24.605 24.605 0 0 1 8.08 8.08m5.12-2.427a12.161 12.161 0 0 1 2.8-.32C25.333 5.333 30.667 16 30.667 16a24.646 24.646 0 0 1-2.88 4.253m-8.96-1.426a4.01 4.01 0 0 1-2.855 1.273 3.987 3.987 0 0 1-3.779-2.502 3.995 3.995 0 0 1 .983-4.424M1.333 1.333l29.333 29.333"/>
    </symbol>
    <symbol id="icon-eye" viewBox="0 0 32 32">
      <path fill="none" stroke="#f6b83d" stroke-linejoin="round" stroke-width="2.909" d="M15.985 5.324C25.323 5.324 30.661 16 30.661 16s-5.338 10.662-14.676 10.662C6.661 26.662 1.323 16 1.323 16S6.661 5.324 15.985 5.324z" style="stroke:var(--color2, #f6b83d)"/>
      <path fill="none" stroke="#f6b83d" stroke-linejoin="round" stroke-width="2.909" d="M16 20c-2.211 0-4-1.804-4-4 0-2.211 1.789-4 4-4 2.196 0 4 1.789 4 4 0 2.196-1.804 4-4 4z" style="stroke:var(--color2, #f6b83d)"/>
    </symbol>
    <symbol id="icon-cross-small" viewBox="0 0 32 32">
      <path fill="none" stroke="#ef2447" style="stroke: var(--color1, #ef2447)" stroke-linejoin="round" stroke-linecap="butt" stroke-miterlimit="4" stroke-width="2.9091" d="M25.324 6.662l-18.662 18.662M6.662 6.662l18.662 18.662"></path>
    </symbol>
    <symbol id="icon-check" viewBox="0 0 32 32">
      <path fill="none" stroke="#08aa83" stroke-linecap="round" stroke-linejoin="round" stroke-width="2.182" d="M26.662 9.324 12 24l-6.676-6.676" style="stroke:var(--color9, #08aa83)"/>
    </symbol>
    <symbol id="icon-slider-r-right" viewBox="0 0 32 32">
      <path fill="none" stroke="#262626" stroke-width=".727" d="M31.636 15.273c0 8.636-7.001 15.636-15.636 15.636S.364 23.908.364 15.273C.364 6.637 7.365-.363 16-.363s15.636 7.001 15.636 15.636z" style="stroke:var(--color6, rgba(38, 38, 38, 0.2))"/>
      <path d="M19.92 15.789c.073-.073.124-.153.16-.24s.058-.182.058-.276c0-.102-.022-.196-.058-.284s-.087-.167-.16-.233l-3.338-3.331a1.104 1.104 0 0 1-.16-.24.723.723 0 0 1-.051-.276c0-.102.015-.196.051-.284a.917.917 0 0 1 .16-.233.71.71 0 0 1 1.025 0l3.338 3.338c.415.407.64.96.64 1.542 0 .575-.225 1.127-.64 1.542l-3.338 3.338a.752.752 0 0 1-.509.211c-.095 0-.189-.022-.276-.058s-.167-.087-.24-.153a1.104 1.104 0 0 1-.16-.24.723.723 0 0 1-.051-.276c0-.102.015-.196.051-.284a.917.917 0 0 1 .16-.233l3.338-3.331z"/>
      <path d="M14.829 15.789c.073-.073.124-.153.16-.24s.058-.182.058-.276c0-.102-.022-.196-.058-.284s-.087-.167-.16-.233l-3.338-3.331a1.104 1.104 0 0 1-.16-.24.723.723 0 0 1-.051-.276c0-.102.015-.196.051-.284a.917.917 0 0 1 .16-.233.71.71 0 0 1 1.025 0l3.338 3.338c.415.407.64.96.64 1.542 0 .575-.225 1.127-.64 1.542l-3.338 3.338a.752.752 0 0 1-.509.211c-.095 0-.189-.022-.276-.058s-.167-.087-.24-.153a1.104 1.104 0 0 1-.16-.24.723.723 0 0 1-.051-.276c0-.102.015-.196.051-.284a.917.917 0 0 1 .16-.233l3.338-3.331z"/>
    </symbol>
    <symbol id="icon-slider-right" viewBox="0 0 32 32">
      <path fill="none" stroke="#262626" stroke-width=".727" d="M31.636 15.273c0 8.636-7.001 15.636-15.636 15.636S.364 23.908.364 15.273C.364 6.637 7.365-.363 16-.363s15.636 7.001 15.636 15.636z" style="stroke:var(--color6, rgba(38, 38, 38, 0.2))"/>
      <path d="M17.011 15.789c.073-.073.124-.153.16-.24s.058-.182.058-.276c0-.102-.022-.196-.058-.284s-.087-.167-.16-.233l-3.338-3.331a1.104 1.104 0 0 1-.16-.24.723.723 0 0 1-.051-.276c0-.102.015-.196.051-.284a.917.917 0 0 1 .16-.233.71.71 0 0 1 1.025 0l3.338 3.338c.415.407.64.96.64 1.542 0 .575-.225 1.127-.64 1.542l-3.338 3.338a.752.752 0 0 1-.509.211c-.095 0-.189-.022-.276-.058s-.167-.087-.24-.153a1.104 1.104 0 0 1-.16-.24.723.723 0 0 1-.051-.276c0-.102.015-.196.051-.284a.917.917 0 0 1 .16-.233l3.338-3.331z"/>
    </symbol>
    <symbol id="icon-slider-left" viewBox="0 0 31 32">
      <path fill="none" stroke="#262626" stroke-width=".711" d="M30.933 15.644c0 8.444-6.845 15.289-15.289 15.289S.355 24.088.355 15.644C.355 7.2 7.2.355 15.644.355S30.933 7.2 30.933 15.644z" style="stroke:var(--color6, rgba(38, 38, 38, 0.2)"/>
      <path d="M14.649 16.149c-.071-.071-.121-.149-.156-.235s-.057-.178-.057-.27a.703.703 0 0 1 .213-.505l3.264-3.264a.837.837 0 0 0 .156-.228.692.692 0 0 0 .05-.27.7.7 0 0 0-.05-.277.877.877 0 0 0-.156-.228.695.695 0 0 0-1.003 0l-3.264 3.257a2.132 2.132 0 0 0-.626 1.515c0 .562.22 1.102.626 1.508l3.264 3.264a.736.736 0 0 0 .498.206c.092 0 .185-.021.27-.057s.164-.085.235-.149c.064-.071.114-.149.156-.235a.692.692 0 0 0 .05-.27.7.7 0 0 0-.05-.277.877.877 0 0 0-.156-.228l-3.264-3.257z"/>
    </symbol>
    <symbol id="icon-slider-l-left" viewBox="0 0 31 32">
      <path fill="none" stroke="#262626" stroke-width=".711" d="M30.933 15.644c0 8.444-6.845 15.289-15.289 15.289S.355 24.088.355 15.644C.355 7.2 7.2.355 15.644.355S30.933 7.2 30.933 15.644z" style="stroke:var(--color6, rgba(38, 38, 38, 0.2)"/>
      <path d="M11.804 16.149c-.071-.071-.121-.149-.156-.235s-.057-.178-.057-.27a.703.703 0 0 1 .213-.505l3.264-3.264a.837.837 0 0 0 .156-.228.692.692 0 0 0 .05-.27.7.7 0 0 0-.05-.277.877.877 0 0 0-.156-.228.695.695 0 0 0-1.003 0l-3.264 3.257a2.132 2.132 0 0 0-.626 1.515c0 .562.22 1.102.626 1.508l3.264 3.264a.736.736 0 0 0 .498.206c.092 0 .185-.021.27-.057s.164-.085.235-.149c.064-.071.114-.149.156-.235a.692.692 0 0 0 .05-.27.7.7 0 0 0-.05-.277.877.877 0 0 0-.156-.228l-3.264-3.257z"/>
      <path d="M16.782 16.149c-.071-.071-.121-.149-.156-.235s-.057-.178-.057-.27a.703.703 0 0 1 .213-.505l3.264-3.264a.837.837 0 0 0 .156-.228.692.692 0 0 0 .05-.27.7.7 0 0 0-.05-.277.877.877 0 0 0-.156-.228.695.695 0 0 0-1.003 0l-3.264 3.257a2.132 2.132 0 0 0-.626 1.515c0 .562.22 1.102.626 1.508l3.264 3.264a.736.736 0 0 0 .498.206c.092 0 .185-.021.27-.057s.164-.085.235-.149c.064-.071.114-.149.156-.235a.692.692 0 0 0 .05-.27.7.7 0 0 0-.05-.277.877.877 0 0 0-.156-.228l-3.264-3.257z"/>
    </symbol>  
    <symbol id="icon-search-1" viewBox="0 0 32 32">
      <path  fill="none" stroke-linecap="round" stroke="#262626" stroke-linejoin="round" stroke-width="3.556" d="M14.667 25.333c5.891 0 10.667-4.776 10.667-10.667S20.558 3.999 14.667 3.999 4 8.775 4 14.666s4.776 10.667 10.667 10.667zM28.001 28l-5.8-5.8"/>
    </symbol>
    <symbol id="icon-user-without-photo" viewBox="0 0 32 32">
      <path fill="#fff4df" d="M32 16c0 8.837-7.163 16-16 16S0 24.837 0 16 7.163 0 16 0s16 7.163 16 16z" style="fill:var(--color1, #fff4df)"/>
      <path fill="#f6b83d" stroke="#f6b83d" stroke-linecap="round" stroke-linejoin="round" stroke-width="1.28" d="M16 17.92c-2.029 0-3.833.98-4.982 2.5-.247.327-.371.491-.367.712.003.171.11.386.245.492.174.137.415.137.897.137h8.413c.482 0 .723 0 .897-.137a.714.714 0 0 0 .245-.492c.004-.221-.12-.385-.367-.712-1.149-1.52-2.953-2.5-4.982-2.5zM16 16a2.88 2.88 0 1 0 .001-5.759A2.88 2.88 0 0 0 16 16z" style="fill:var(--color2, #f6b83d);stroke:var(--color2, #f6b83d)"/>
    </symbol>
    <symbol id="icon-star" viewBox="0 0 32 32">
      <path  d="m14.1 1.66-3.78 7.16c-.14.28-.4.46-.7.52l-7.98 1.38c-.8.14-1.1 1.1-.54 1.68l5.64 5.8c.22.24.32.54.26.84l-1.14 8.02c-.12.8.7 1.4 1.42 1.04l7.26-3.58c.28-.12.62-.12.9 0l7.26 3.58a.99.99 0 0 0 1.42-1.04l-1.14-8.02c-.06-.3.04-.6.26-.84l5.64-5.8a.994.994 0 0 0-.54-1.68l-7.98-1.38a.983.983 0 0 1-.7-.52l-3.78-7.16c-.38-.7-1.4-.7-1.78 0z"/>
      <path d="m10.32 8.82 3.78-7.16c.38-.7 1.4-.7 1.78 0l3.78 7.16c.14.28.4.46.7.52l7.98 1.38c.8.14 1.1 1.1.54 1.68l-5.64 5.8c-.22.24-.32.54-.26.84l1.14 8.02c.12.8-.7 1.4-1.42 1.04l-7.26-3.58a1.17 1.17 0 0 0-.9 0L7.28 28.1a.99.99 0 0 1-1.42-1.04L7 19.04c.06-.3-.04-.6-.26-.84L1.1 12.4a.994.994 0 0 1 .54-1.68l7.98-1.38c.3-.06.56-.24.7-.52zm2.14 1.12c-.5.94-1.4 1.58-2.44 1.76l-5.36.94 3.8 3.9c.74.76 1.08 1.8.92 2.84l-.78 5.4 4.88-2.4c.96-.48 2.06-.48 3.02 0l4.88 2.4-.78-5.4c-.16-1.04.18-2.08.92-2.84l3.8-3.9-5.36-.94a3.411 3.411 0 0 1-2.44-1.76L15 5.14l-2.54 4.8z" />
    </symbol>
      <symbol id="icon-favorite" viewBox="0 0 32 32">
      <path fill="#fff4df" d="M16 0c8.837 0 16 7.163 16 16s-7.163 16-16 16S0 24.837 0 16 7.163 0 16 0z" style="fill:var(--color5, #fff4df)"/>
      <path fill="none" stroke="#f6b83d" stroke-linejoin="round" d="M19.527 11.707a2.725 2.725 0 0 0-2.106 0c-.333.14-.64.34-.893.593l-.527.533-.533-.533a2.748 2.748 0 0 0-3.887 0 2.75 2.75 0 0 0 0 3.894l4.42 4.42 3.887-3.893.533-.527c.253-.26.453-.56.593-.893s.207-.693.207-1.053-.067-.72-.207-1.053-.34-.633-.593-.893a2.873 2.873 0 0 0-.893-.593z" style="stroke:var(--color2, #f6b83d)"/>
    </symbol>
    <symbol id="icon-heart-add" viewBox="0 0 34 32">
      <path fill="none" stroke="#fff" stroke-linecap="round" stroke-linejoin="round" stroke-width="2.667" d="M28.676 6.147a7.345 7.345 0 0 0-5.187-2.15 7.33 7.33 0 0 0-5.186 2.15L16.89 7.56l-1.413-1.413a7.333 7.333 0 0 0-10.374 0 7.333 7.333 0 0 0 0 10.374L16.89 28.308l11.787-11.787a7.345 7.345 0 0 0 2.149-5.187 7.33 7.33 0 0 0-2.149-5.187z" style="stroke:var(--color1, #fff)"/>
    </symbol>


    








    
    <symbol id="icon-chevron-upp" viewBox="0 0 32 32">
      <path stroke-linecap="round" stroke-linejoin="round" stroke-width="3.556" d="m8 20 8-8 8 8"/>
    </symbol>
    <symbol id="icon-upload-cloud" viewBox="0 0 32 32">
      <path fill="none" stroke="#f6b83d" stroke-linecap="round" stroke-linejoin="round" stroke-width="2.311" d="M16 16v12m11.182-3.484a6.631 6.631 0 0 0 2.916-3.2 6.742 6.742 0 0 0 .356-4.302 6.735 6.735 0 0 0-2.364-3.609 6.59 6.59 0 0 0-4.089-1.404h-1.689a10.707 10.707 0 0 0-2.204-4.249 10.417 10.417 0 0 0-3.822-2.844c-1.476-.658-3.076-.96-4.693-.907s-3.182.48-4.604 1.244A10.381 10.381 0 0 0 3.38 8.374a10.418 10.418 0 0 0-1.884 4.391 10.796 10.796 0 0 0 .213 4.764 10.667 10.667 0 0 0 2.293 4.196" style="stroke:var(--color2, #f6b83d)"/>
      <path fill="none" stroke="#f6b83d" stroke-linecap="round" stroke-linejoin="round" stroke-width="2.311" d="M21.333 21.333 16 16l-5.333 5.333" style="stroke:var(--color2, #f6b83d)"/>
    </symbol>
    <symbol id="icon-user-unknown" viewBox="0 0 32 32">
      <path fill="#fff" d="M16 20c-4.231 0-8 2.027-10.382 5.191-.516.693-.782 1.031-.764 1.493 0 .356.231.8.498 1.031.373.284.871.284 1.884.284h17.511c1.013 0 1.511 0 1.884-.284.267-.231.498-.676.498-1.031.018-.462-.249-.8-.764-1.493C23.983 22.027 20.214 20 16.001 20z" style="fill:var(--color3, #fff)"/>
      <path fill="none" stroke="#fff" stroke-linejoin="round" stroke-width="3.556" d="M16 20c4.213 0 7.982 2.027 10.364 5.191.516.693.782 1.031.764 1.493 0 .356-.231.8-.498 1.031-.373.284-.871.284-1.884.284H7.235c-1.013 0-1.511 0-1.884-.284-.267-.231-.498-.676-.498-1.031-.018-.462.249-.8.764-1.493C7.999 22.027 11.768 20 15.999 20z" style="stroke:var(--color3, #fff)"/>
      <path fill="#fff" d="M21.991 9.991C21.991 13.298 19.307 16 16 16c-3.324 0-6.009-2.702-6.009-6.009S12.675 4 16 4a5.993 5.993 0 0 1 5.991 5.991z" style="fill:var(--color3, #fff)"/>
      <path fill="none" stroke="#fff" stroke-linejoin="round" stroke-width="3.556" d="M16 16c-3.324 0-6.009-2.702-6.009-6.009S12.675 4 16 4c3.307 0 5.991 2.684 5.991 5.991S19.307 16 16 16z" style="stroke:var(--color3, #fff)"/>
    </symbol>
    <symbol id="icon-plus" viewBox="0 0 32 32">
      <path fill="none" stroke="#fff" stroke-linecap="round" stroke-linejoin="round" stroke-width="2.667" d="M16 6.667v18.667M6.667 16h18.667" style="stroke:var(--color3, #fff)"/>
    </symbol>
    <symbol id="icon-edit-pen" viewBox="0 0 32 32">
      <path fill="none" stroke="#f6b83d" stroke-linejoin="round" stroke-width="2.667" d="M23.876 3.182c.462-.196.96-.302 1.458-.302.48 0 .978.107 1.44.302.444.178.871.462 1.227.8.338.356.622.782.8 1.227.196.462.302.96.302 1.44 0 .498-.107.996-.302 1.458a3.686 3.686 0 0 1-.8 1.209L9.992 27.325l-7.324 2.009 1.991-7.342L22.668 3.983a3.676 3.676 0 0 1 1.209-.8z" style="stroke:var(--color2, #f6b83d)"/>
    </symbol>
    <symbol id="icon-trash" viewBox="0 0 32 32">
      <path fill="none" stroke="#f6b83d" stroke-linecap="round" stroke-linejoin="round" stroke-width="2.667" d="M4 8h24" style="stroke:var(--color2, #f6b83d)"/>
      <path fill="none" stroke="#f6b83d" stroke-linejoin="round" stroke-width="2.667" d="M25.333 8v18.667c0 .693-.284 1.369-.782 1.884a2.727 2.727 0 0 1-1.884.782H9.334a2.735 2.735 0 0 1-1.902-.782 2.708 2.708 0 0 1-.764-1.884V8m3.999 0V5.333c0-.711.267-1.387.764-1.902a2.719 2.719 0 0 1 1.902-.764h5.333a2.71 2.71 0 0 1 1.884.764c.498.516.782 1.191.782 1.902V8" style="stroke:var(--color2, #f6b83d)"/>
      <path fill="none" stroke="#f6b83d" stroke-linecap="round" stroke-linejoin="round" stroke-width="2.667" d="M13.333 14.667v8m5.334-8v8" style="stroke:var(--color2, #f6b83d)"/>
    </symbol>


    <symbol id="icon-Frame" viewBox="0 0 32 32">
      <path fill="#fff4df" d="M32 16c0 8.837-7.163 16-16 16S0 24.837 0 16 7.163 0 16 0s16 7.163 16 16z" style="fill:var(--color5, #fff4df)"/>
      <path fill="#f6b83d" d="M16 17.92c-2.029 0-3.834.979-4.986 2.496-.25.326-.371.493-.365.71 0 .173.109.39.243.493.173.141.416.141.896.141h8.416c.48 0 .723 0 .896-.141a.693.693 0 0 0 .243-.493c.006-.218-.122-.384-.365-.71-1.152-1.517-2.957-2.496-4.979-2.496z" style="fill:var(--color2, #f6b83d)"/>
      <path fill="none" stroke="#f6b83d" stroke-linejoin="round" stroke-width="1.28" d="M16 17.92c2.022 0 3.827.979 4.979 2.496.243.326.371.493.365.71 0 .173-.109.39-.243.493-.173.141-.416.141-.896.141h-8.416c-.48 0-.723 0-.896-.141a.693.693 0 0 1-.243-.493c-.006-.218.115-.384.365-.71 1.152-1.517 2.957-2.496 4.986-2.496z" style="stroke:var(--color2, #f6b83d)"/>
      <path fill="#f6b83d" d="M18.88 13.12a2.88 2.88 0 1 1-5.76 0 2.88 2.88 0 0 1 5.76 0z" style="fill:var(--color2, #f6b83d)"/>
      <path fill="none" stroke="#f6b83d" stroke-linejoin="round" stroke-width="1.28" d="M16 16a2.88 2.88 0 1 1 0-5.76A2.88 2.88 0 0 1 16 16z" style="stroke:var(--color2, #f6b83d)"/>
    </symbol>
    <symbol id="icon-logo" viewBox="0 0 105 32">
      <path fill="#262626"  d="M45.09 4.14h3.37v20.58h-3.37V4.14zm-5.36 20.82c.97.03 1.95-.05 2.94-.24v-2.83c-.94.14-1.78.18-2.52.11-.73-.06-1.27-.37-1.61-.93-.17-.29-.27-.67-.29-1.12-.01-.46-.01-.99-.01-1.6v-6.1h4.43V9.6h-4.43V5.4h-3.36v4.2h-2.75v2.65h2.75v6.29c0 .86.01 1.63.02 2.32.02.68.21 1.34.55 2 .39.72.97 1.24 1.72 1.58.76.33 1.61.5 2.56.52zm-34.16-.83q1.48 1.01 3.65 1.01 1.67 0 3-.67.33-.17.64-.38c1.04-.7 1.84-1.65 2.41-2.86.57-1.2.85-2.56.85-4.07q0-2.3-.86-4.09c-.58-1.2-1.4-2.15-2.45-2.84q-.23-.15-.46-.28-1.42-.77-3.25-.77-2.03 0-3.45.93l-.18.12q-.3.21-.56.45V9.6H1.93v21.84h3.4v-7.48q.09.06.18.13l.06.04zm-.66-6.97q0 1.47.38 2.59c.26.75.66 1.33 1.22 1.75q.84.62 2.19.62c.88 0 1.6-.22 2.17-.66q.17-.13.31-.27.62-.6.95-1.51.42-1.14.42-2.52c0-.92-.14-1.75-.42-2.49-.28-.76-.71-1.36-1.3-1.79q-.04-.04-.08-.07-.86-.61-2.16-.61c-.86 0-1.56.21-2.1.63-.54.41-.94.99-1.2 1.74q-.38 1.11-.38 2.59zm16.06 7.01q1.72.97 3.99.97 1.26 0 2.4-.38.83-.28 1.59-.75.74-.46 1.32-1.07.85-.89 1.37-2.11l-3.33-1.01q-.36.78-.96 1.29-.21.17-.44.32c-.6.36-1.31.55-2.14.55q-1.42 0-2.33-.68-.34-.25-.61-.58c-.53-.66-.85-1.54-.96-2.62h10.94q.19-2.72-.6-4.72c-.54-1.34-1.35-2.37-2.45-3.09-1.1-.74-2.43-1.11-3.99-1.11-1.49 0-2.79.34-3.92 1.01q-.59.34-1.08.79-.94.85-1.57 2.05-.95 1.82-.95 4.3c0 1.53.32 2.88.96 4.06a7.211 7.211 0 0 0 2.72 2.76l.04.02zm7.41-8.62q-.18-1.48-.79-2.28c-.56-.76-1.46-1.14-2.68-1.14q-1.64 0-2.61.81-.26.21-.47.48c-.43.55-.73 1.26-.88 2.13h7.43z" style="fill:var(--color6, #262626)"/>
      <path fill="#f6b83d" d="M62.49 10.43c-1.84-2.17-4.91-2.76-7.21-.77-2.31 1.99-2.63 5.32-.82 7.67 1.16 1.5 4.13 4.3 6.11 6.11.66.6.99.91 1.39 1.03.33.1.72.1 1.06 0 .4-.12.73-.43 1.39-1.03 1.98-1.81 4.95-4.61 6.11-6.11 1.81-2.35 1.52-5.7-.82-7.67s-5.37-1.4-7.21.77z" style="fill:var(--color2, #f6b83d)"/>
      <path fill="#262626" d="M92.61 24.15c1.15.66 2.5.99 4.03.99 1.45 0 2.78-.38 3.99-1.13q.73-.46 1.31-1.07.86-.89 1.38-2.11l-3.34-1.01q-.36.78-.95 1.29-.21.17-.45.32c-.59.36-1.31.55-2.14.55-1.29 0-2.27-.42-2.94-1.26q-.79-.99-.96-2.62h10.95c.13-1.81-.07-3.39-.61-4.72-.53-1.34-1.35-2.37-2.45-3.09q-.05-.04-.1-.07-1.61-1.04-3.89-1.04c-1.48 0-2.79.34-3.92 1.01q-.58.34-1.08.79-.94.85-1.56 2.05-.96 1.82-.96 4.3 0 2.29.97 4.06a7.142 7.142 0 0 0 2.72 2.76zm7.45-8.6q-.18-1.48-.79-2.28c-.57-.76-1.46-1.14-2.69-1.14q-1.63 0-2.61.81-.26.21-.47.48-.64.82-.88 2.13h7.44zM74.56 9.6l5.48 15.12h3.39L88.92 9.6h-3.39l-3.79 10.96L77.93 9.6h-3.37z" style="fill:var(--color6, #262626)"/>
    </symbol>
    <symbol id="icon-edit" viewBox="0 0 32 32">
      <path fill="#fff4df" d="M16 0c8.837 0 16 7.163 16 16s-7.163 16-16 16S0 24.837 0 16 7.163 0 16 0z" style="fill:var(--color5, #fff4df)"/>
      <path fill="none" stroke="#f6b83d" stroke-linejoin="round" stroke-width="1.263" d="M19.731 9.928c.219-.093.455-.143.691-.143.227 0 .463.051.682.143.211.084.413.219.581.387.16.16.295.362.387.573.084.219.135.455.135.691 0 .227-.051.463-.135.682a2.056 2.056 0 0 1-.387.581l-8.531 8.522-3.469.952.943-3.478 8.531-8.522c.16-.168.362-.303.573-.387z" style="stroke:var(--color2, #f6b83d)"/>
    </symbol>
    <symbol id="icon-delete" viewBox="0 0 32 32">
      <path fill="#fff4df" d="M16 0c8.837 0 16 7.163 16 16s-7.163 16-16 16S0 24.837 0 16 7.163 0 16 0z" style="fill:var(--color5, #fff4df)"/>
      <path fill="none" stroke="#f6b83d" stroke-linecap="round" stroke-linejoin="round" stroke-width="1.091" d="M11.091 12.727h9.818" style="stroke:var(--color2, #f6b83d)"/>
      <path fill="none" stroke="#f6b83d" stroke-linejoin="round" stroke-width="1.091" d="M19.818 12.727v7.636c0 .284-.116.56-.32.771-.211.204-.487.32-.771.32h-5.455c-.291 0-.567-.116-.778-.32a1.107 1.107 0 0 1-.313-.771v-7.636m1.637 0v-1.091c0-.291.109-.567.313-.778a1.11 1.11 0 0 1 .778-.313h2.182c.284 0 .56.109.771.313.204.211.32.487.32.778v1.091" style="stroke:var(--color2, #f6b83d)"/>
      <path fill="none" stroke="#f6b83d" stroke-linecap="round" stroke-linejoin="round" stroke-width="1.091" d="M14.909 15.455v3.273m2.182-3.273v3.273" style="stroke:var(--color2, #f6b83d)"/>
    </symbol>


    <symbol id="icon-multiple" viewBox="0 0 32 32">
      <path fill="#fff4df" d="M16 0c8.837 0 16 7.163 16 16s-7.163 16-16 16S0 24.837 0 16 7.163 0 16 0z" style="fill:var(--color5, #fff4df)"/>
      <path fill="#f6b83d" d="M13.416 12.592a2.807 2.807 0 0 0-3.28.952 2.792 2.792 0 0 0-.536 1.712c.008.616.224 1.216.608 1.696.392.48.92.816 1.52.968a2.812 2.812 0 0 0 3.12-1.376 2.77 2.77 0 0 0 .312-1.768c-.008-.056-.008-.112.008-.16s.032-.096.064-.144a.511.511 0 0 1 .12-.104.484.484 0 0 1 .296-.048c.056.016.104.04.144.072s.08.064.104.112a.36.36 0 0 1 .056.144 3.64 3.64 0 0 1-.4 2.28 3.62 3.62 0 0 1-1.712 1.568 3.671 3.671 0 0 1-2.304.2c-.768-.192-1.456-.632-1.952-1.248s-.768-1.384-.784-2.176a3.552 3.552 0 0 1 .696-2.2 3.581 3.581 0 0 1 1.896-1.328 3.58 3.58 0 0 1 2.312.104.468.468 0 0 1 .136.08c.032.04.064.08.088.128s.032.104.032.152c0 .056-.008.112-.024.16s-.048.096-.088.128a.385.385 0 0 1-.128.096c-.048.016-.096.032-.152.032s-.104-.016-.152-.032z" style="fill:var(--color2, #f6b83d)"/>
      <path fill="#f6b83d" d="M11.992 22v-3.2c0-.112.048-.208.12-.288a.42.42 0 0 1 .568 0 .42.42 0 0 1 .112.288V22c0 .104-.04.2-.112.28a.427.427 0 0 1-.288.12.407.407 0 0 1-.4-.4z" style="fill:var(--color2, #f6b83d)"/>
      <path fill="#f6b83d" d="M10.792 20c0-.112.048-.208.12-.288a.4.4 0 0 1 .28-.112h2.4c.104 0 .208.04.288.112a.42.42 0 0 1 0 .568.443.443 0 0 1-.288.12h-2.4a.407.407 0 0 1-.4-.4zm7.16-7.496c-.44-.12-.912-.136-1.36-.04s-.864.304-1.216.608c-.352.296-.624.68-.792 1.104a2.789 2.789 0 0 0-.168 1.352.365.365 0 0 1-.016.16.445.445 0 0 1-.184.24c-.048.024-.096.04-.152.048s-.104 0-.16-.016a.252.252 0 0 1-.136-.072c-.04-.032-.072-.072-.104-.112a.558.558 0 0 1-.048-.152 3.672 3.672 0 0 1 .48-2.264c.408-.68 1.024-1.208 1.76-1.504s1.552-.336 2.312-.12a3.593 3.593 0 0 1 2.624 3.512 3.617 3.617 0 0 1-.776 2.184 3.61 3.61 0 0 1-4.248 1.072c-.048-.024-.088-.048-.128-.088s-.064-.08-.088-.128c-.04-.104-.032-.216.008-.312s.12-.168.216-.208a.42.42 0 0 1 .312 0c.352.152.728.232 1.112.232s.76-.08 1.112-.24a2.8 2.8 0 0 0 1.52-1.624 2.836 2.836 0 0 0-.152-2.224 2.833 2.833 0 0 0-1.728-1.408z" style="fill:var(--color2, #f6b83d)"/>
      <path fill="#f6b83d" d="M19.512 13.28c-.08-.072-.12-.176-.12-.28s.04-.208.12-.28l2.992-3a.361.361 0 0 1 .136-.088.325.325 0 0 1 .152-.032c.056-.008.104.008.152.024a.4.4 0 0 1 .136.088.57.57 0 0 1 .088.136.32.32 0 0 1 .024.152.325.325 0 0 1-.032.152.284.284 0 0 1-.088.128l-3 3c-.072.08-.176.12-.28.12s-.208-.04-.28-.12z" style="fill:var(--color2, #f6b83d)"/>
      <path fill="#f6b83d" d="M22.76 12.4c-.056 0-.104-.008-.152-.032s-.096-.048-.128-.088a.457.457 0 0 1-.088-.128.554.554 0 0 1-.024-.16l.016-1.584-1.584.016c-.112 0-.208-.04-.288-.112s-.12-.176-.12-.28c0-.104.04-.208.112-.288a.407.407 0 0 1 .28-.12l2.408-.024-.024 2.408a.516.516 0 0 1-.032.152c-.024.048-.056.088-.088.128a.468.468 0 0 1-.136.08.325.325 0 0 1-.152.032z" style="fill:var(--color2, #f6b83d)"/>
    </symbol>
    <symbol id="icon-male" viewBox="0 0 32 32">
      <path fill="#54adff" d="M16 0c8.837 0 16 7.163 16 16s-7.163 16-16 16S0 24.837 0 16 7.163 0 16 0z" opacity=".1" style="fill:var(--color7, #54adff)"/>
      <path fill="none" stroke="#54adff" stroke-linecap="round" stroke-linejoin="round" stroke-width="1.2" d="M16 23.2c-2.216 0-4-1.792-4-4 0-2.216 1.784-4 4-4 2.208 0 4 1.784 4 4 0 2.208-1.792 4-4 4zm0-8V8.8M12.8 12 16 8.8l3.2 3.2" style="stroke:var(--color7, #54adff)"/>
    </symbol>
    <symbol id="icon-female" viewBox="0 0 32 32">
      <path fill="#f43f5e" d="M16 0c8.837 0 16 7.163 16 16s-7.163 16-16 16S0 24.837 0 16 7.163 0 16 0z" opacity=".1" style="fill:var(--color8, #f43f5e)"/>
      <path fill="none" stroke="#54adff" stroke-linejoin="round" stroke-width="1.2" d="M16 8.8c2.208 0 4 1.784 4 4 0 2.208-1.792 4-4 4-2.216 0-4-1.792-4-4 0-2.216 1.784-4 4-4zm0 8v6.4m-2.4-2.4h4.8" style="stroke:var(--color7, #54adff)"/>
    </symbol>
    <symbol id="icon-image-none" viewBox="0 0 31 32">
      <path fill="#fff4df" d="M31.475 15.738c0 8.692-7.046 15.738-15.738 15.738S-.001 24.43-.001 15.738 7.045 0 15.737 0s15.738 7.046 15.738 15.738z" style="fill:var(--color5, #fff4df)"/>
      <path fill="#fff" d="M7.344 23.082h16.787V6.295H7.344v16.787z" style="fill:var(--color3, #fff)"/>
    </symbol>
    <symbol id="icon-calendar" viewBox="0 0 32 32">
      <path stroke-linejoin="round" stroke-width="2.88" d="M25.328 5.328A2.667 2.667 0 0 1 28 8v18.656c0 1.472-1.2 2.672-2.672 2.672H6.656A2.663 2.663 0 0 1 4 26.656V8a2.653 2.653 0 0 1 2.656-2.672h18.672z"/>
      <path stroke-linecap="round" stroke-linejoin="round" stroke-width="2.88" d="M21.328 2.656V8M10.656 2.656V8M4 13.328h24"/>
    </symbol>
    <symbol id="icon-man" viewBox="0 0 32 32">
      <path fill="#fff4df" d="M32 16c0 8.837-7.163 16-16 16S0 24.837 0 16 7.163 0 16 0s16 7.163 16 16z" style="fill:var(--color5, #fff4df)"/>
      <path fill="#f6b83d" d="M16 17.92c-2.029 0-3.834.979-4.986 2.496-.25.326-.371.493-.365.71 0 .173.109.39.243.493.173.141.416.141.896.141h8.416c.48 0 .723 0 .896-.141a.693.693 0 0 0 .243-.493c.006-.218-.122-.384-.365-.71-1.152-1.517-2.957-2.496-4.979-2.496z" style="fill:var(--color2, #f6b83d)"/>
      <path fill="none" stroke="#f6b83d" stroke-linejoin="round" stroke-width="1.28" d="M16 17.92c2.022 0 3.827.979 4.979 2.496.243.326.371.493.365.71 0 .173-.109.39-.243.493-.173.141-.416.141-.896.141h-8.416c-.48 0-.723 0-.896-.141a.693.693 0 0 1-.243-.493c-.006-.218.115-.384.365-.71 1.152-1.517 2.957-2.496 4.986-2.496z" style="stroke:var(--color2, #f6b83d)"/>
      <path fill="#f6b83d" d="M18.88 13.12a2.88 2.88 0 1 1-5.76 0 2.88 2.88 0 0 1 5.76 0z" style="fill:var(--color2, #f6b83d)"/>
      <path fill="none" stroke="#f6b83d" stroke-linejoin="round" stroke-width="1.28" d="M16 16a2.88 2.88 0 1 1 0-5.76A2.88 2.88 0 0 1 16 16z" style="stroke:var(--color2, #f6b83d)"/>
    </symbol>
    <symbol id="icon-chevron-down" viewBox="0 0 32 32">
      <path stroke-linecap="round" stroke-linejoin="round" stroke-width="3.556" d="m8 12 8 8 8-8"/>
    </symbol>


  </defs>
</svg>